# This file uses centimeters as units for non-parametric coordinates.

mtllib example1_obj.mtl
g default
v 0.000624 0.667313 -0.171160
v 0.492086 1.002728 -0.000000
v 0.000624 0.662309 0.151310
v -0.503045 0.995530 0.000000
v -0.000624 -0.013327 0.000000
v 0.311830 0.656628 -0.000000
vt 0.500000 0.000000
vt 0.250000 0.250000
vt 0.500000 0.500000
vt 0.750000 0.250000
vt 0.250000 0.500000
vt 0.375000 0.500000
vt 0.500000 0.500000
vt 0.625000 0.500000
vt 0.750000 0.500000
vt 0.500000 1.000000
vt 0.417579 0.670316
vn -0.007232 0.999854 0.015515
vn -0.007232 0.999854 0.015515
vn -0.007232 0.999853 0.015515
vn -0.007232 0.999853 0.015515
vn 0.464141 -0.221122 -0.857717
vn 0.463267 -0.227488 -0.856524
vn 0.464731 -0.216742 -0.858515
vn 0.424552 -0.208662 0.881031
vn 0.425213 -0.202465 0.882158
vn 0.425626 -0.198504 0.882858
vn -0.400649 -0.199527 0.894242
vn -0.400649 -0.199527 0.894242
vn -0.400649 -0.199527 0.894242
vn -0.438574 -0.218414 -0.871750
vn -0.438574 -0.218414 -0.871750
vn -0.438574 -0.218414 -0.871750
vn 0.461438 -0.240327 -0.854001
vn 0.423247 -0.220436 0.878789
s off
g pPyramid1
usemtl initialShadingGroup
f 1/1/1 4/4/2 3/3/3 2/2/4
s 1
f 1/5/5 6/11/6 5/10/7
s 2
f 6/11/8 3/7/9 5/10/10
s off
f 3/7/11 4/8/12 5/10/13
f 4/8/14 1/9/15 5/10/16
s 1
f 1/5/5 2/6/17 6/11/6
s 2
f 2/6/18 3/7/9 6/11/8
