# Blender v3.3.1 OBJ File: 'heart.blend'
# www.blender.org
mtllib heart.mtl

v 0.000000 0.000000 2.000000
v -0.978034 0.000000 -2.988961
v -1.989017 0.000000 -1.994480
v 2.014095 0.000000 -2.000750
v -1.173125 0.000000 -2.969746
v -1.360718 0.000000 -2.912840
v -1.533605 0.000000 -2.820430
v -1.685141 0.000000 -2.696068
v -1.809504 0.000000 -2.544531
v -1.901914 0.000000 -2.371644
v -1.958820 0.000000 -2.184051
v 1.223280 0.519144 -2.982285
v 1.859659 0.519144 -2.557070
v 1.952069 0.519144 -2.384183
v 2.008975 0.519144 -2.196590
v 0.047405 0.519144 -2.196590
v 0.104310 0.519144 -2.384183
v 0.196720 0.519144 -2.557070
v 0.321083 0.519144 -2.708607
v 0.472620 0.519144 -2.832969
v 0.645507 0.519144 -2.925379
v 0.833100 0.519144 -2.982285
v 1.028190 0.519144 -3.001500
v -0.782944 0.519144 -2.969746
v -0.595351 0.519144 -2.912840
v -0.422464 0.519144 -2.820430
v -0.270927 0.519144 -2.696068
v 0.016719 0.000000 -1.996820
v 0.002751 0.000000 -2.184051
v -0.054155 0.000000 -2.371644
v -0.146565 0.000000 -2.544531
v -0.270927 0.000000 -2.696068
v -0.422464 0.000000 -2.820430
v -0.595351 0.000000 -2.912840
v -0.782944 0.000000 -2.969746
v 1.410873 0.519144 -2.925379
v 1.028190 0.000000 -3.001500
v 0.833100 0.000000 -2.982285
v 0.645507 0.000000 -2.925379
v 0.472620 0.000000 -2.832969
v 0.321083 0.000000 -2.708607
v 0.196720 0.000000 -2.557070
v 0.104310 0.000000 -2.384183
v 0.047405 0.000000 -2.196590
v 1.583760 0.519144 -2.832969
v -0.146565 0.519144 -2.544531
v -0.054155 0.519144 -2.371644
v 0.002751 0.519144 -2.184051
v 0.016719 0.519144 -1.996820
v -1.958820 0.519144 -2.184051
v -1.901914 0.519144 -2.371644
v -1.809504 0.519144 -2.544531
v -1.685141 0.519144 -2.696068
v -1.533605 0.519144 -2.820430
v -1.360718 0.519144 -2.912840
v -1.173125 0.519144 -2.969746
v 2.014095 0.519144 -2.000750
v -1.989017 0.519144 -1.994480
v -0.978034 0.519144 -2.988961
v 0.000000 0.519144 2.000000
v 1.735297 0.519144 -2.708607
v 2.008975 0.000000 -2.196590
v 1.952069 0.000000 -2.384183
v 1.859659 0.000000 -2.557070
v 1.735297 0.000000 -2.708607
v 1.583760 0.000000 -2.832969
v 1.410873 0.000000 -2.925379
v 1.223280 0.000000 -2.982285
vt 1.000000 0.000000
vt 0.000000 1.000000
vt 0.500000 1.000000
vt 1.000000 1.000000
vt 0.000000 0.000000
vt 0.000000 0.000000
vt 0.000000 0.000000
vt 0.000000 0.000000
vt 0.000000 0.000000
vt 0.000000 0.000000
vt 0.000000 0.000000
vt 0.000000 0.000000
vt 0.000000 0.000000
vt 0.000000 0.000000
vt 0.000000 0.000000
vt 0.000000 0.000000
vt 0.000000 0.000000
vt 0.000000 0.000000
vt 0.000000 0.000000
vt 0.000000 0.000000
vt 0.000000 0.000000
vt 0.000000 0.000000
vt 0.000000 0.000000
vt 0.000000 0.000000
vt 0.000000 0.000000
vt 0.000000 0.000000
vt 0.000000 0.000000
vt 0.000000 0.000000
vt 0.000000 0.000000
vt 0.000000 0.000000
vt 0.000000 0.000000
vt 0.000000 0.000000
vt 0.000000 0.000000
vt 0.000000 0.000000
vt 0.727956 0.000085
vt 0.727956 0.889751
vt 0.373950 0.710660
vt 0.018318 0.531104
vt 0.047763 0.750148
vt 0.025345 0.718312
vt 0.009568 0.682715
vt 0.001039 0.644723
vt 0.000085 0.605797
vt 0.006744 0.567433
vt 0.354749 0.742629
vt 0.327899 0.770828
vt 0.296063 0.793247
vt 0.260466 0.809024
vt 0.222474 0.817553
vt 0.183548 0.818506
vt 0.145185 0.811847
vt 0.108857 0.797832
vt 0.075962 0.776999
vt 0.709557 0.924038
vt 0.682706 0.952237
vt 0.650870 0.974656
vt 0.615273 0.990432
vt 0.577281 0.998962
vt 0.538355 0.999915
vt 0.499992 0.993256
vt 0.463664 0.979241
vt 0.430769 0.958407
vt 0.402570 0.931557
vt 0.380152 0.899721
vt 0.364375 0.864123
vt 0.355846 0.826132
vt 0.354892 0.787206
vt 0.361551 0.748842
vt 0.000000 0.000000
vt 0.000000 0.000000
vt 0.000000 0.000000
vt 0.000000 0.000000
vt 0.000000 0.000000
vt 0.000000 0.000000
vt 0.000000 0.000000
vt 0.000000 0.000000
vt 1.000000 0.000000
vt 0.000000 1.000000
vt 0.000000 0.000000
vt 0.500000 1.000000
vt 0.000000 0.000000
vt 0.000000 0.000000
vt 0.000000 0.000000
vt 0.000000 0.000000
vt 0.000000 0.000000
vt 0.000000 0.000000
vt 0.000000 0.000000
vt 0.000000 0.000000
vt 0.000000 0.000000
vt 1.000000 1.000000
vt 0.000000 0.000000
vt 0.000000 0.000000
vt 0.000000 0.000000
vt 0.000000 0.000000
vt 0.000000 0.000000
vt 0.000000 0.000000
vt 0.000000 0.000000
vt 0.000000 0.000000
vt 0.000000 0.000000
vt 0.000000 0.000000
vt 0.000000 0.000000
vt 0.000000 0.000000
vn 0.0000 -1.0000 0.0000
vn 0.0000 1.0000 0.0000
vn -0.4714 0.0000 -0.8819
vn 0.4714 0.0000 -0.8819
vn -0.6344 0.0000 -0.7730
vn 0.2903 0.0000 -0.9569
vn -0.7730 0.0000 -0.6344
vn 0.0980 0.0000 -0.9952
vn -0.8952 0.0000 0.4457
vn 0.9972 0.0000 -0.0744
vn -0.8819 0.0000 -0.4714
vn -0.9875 0.0000 -0.1573
vn -0.2903 0.0000 -0.9569
vn 0.9569 0.0000 -0.2903
vn -0.9569 0.0000 -0.2903
vn -0.0980 0.0000 -0.9952
vn 0.8819 0.0000 -0.4714
vn 0.9997 0.0000 -0.0261
vn -0.9884 0.0000 -0.1518
vn 0.7730 0.0000 -0.6344
vn 0.8932 0.0000 0.4497
vn 0.6344 0.0000 -0.7730
usemtl 매테리얼
s off
f 1/1/1 3/2/1 28/3/1 4/4/1
f 6/5/1 5/6/1 2/7/1 35/8/1 34/9/1 33/10/1 32/11/1 31/12/1 30/13/1 29/14/1 28/3/1 3/2/1 11/15/1 10/16/1 9/17/1 8/18/1 7/19/1
f 62/20/1 4/4/1 28/3/1 44/21/1 43/22/1 42/23/1 41/24/1 40/25/1 39/26/1 38/27/1 37/28/1 68/29/1 67/30/1 66/31/1 65/32/1 64/33/1 63/34/1
f 60/35/2 57/36/2 49/37/2 58/38/2
f 55/39/2 54/40/2 53/41/2 52/42/2 51/43/2 50/44/2 58/38/2 49/37/2 48/45/2 47/46/2 46/47/2 27/48/2 26/49/2 25/50/2 24/51/2 59/52/2 56/53/2
f 15/54/2 14/55/2 13/56/2 61/57/2 45/58/2 36/59/2 12/60/2 23/61/2 22/62/2 21/63/2 20/64/2 19/65/2 18/66/2 17/67/2 16/68/2 49/37/2 57/36/2
f 39/26/3 40/25/3 20/69/3 21/70/3
f 66/31/4 67/30/4 36/71/4 45/72/4
f 40/25/5 41/24/5 19/73/5 20/69/5
f 67/30/6 68/29/6 12/74/6 36/71/6
f 41/24/7 42/23/7 18/75/7 19/73/7
f 68/29/8 37/28/8 23/76/8 12/74/8
f 3/2/9 1/1/9 60/77/9 58/78/9
f 28/3/10 29/14/10 48/79/10 49/80/10
f 42/23/11 43/22/11 17/81/11 18/75/11
f 11/15/12 3/2/12 58/78/12 50/82/12
f 5/6/13 6/5/13 55/83/13 56/84/13
f 29/14/14 30/13/14 47/85/14 48/79/14
f 43/22/15 44/21/15 16/86/15 17/81/15
f 2/7/16 5/6/16 56/84/16 59/87/16
f 30/13/17 31/12/17 46/88/17 47/85/17
f 4/4/18 62/20/18 15/89/18 57/90/18
f 44/21/19 28/3/19 49/80/19 16/86/19
f 31/12/20 32/11/20 27/91/20 46/88/20
f 1/1/21 4/4/21 57/90/21 60/77/21
f 32/11/22 33/10/22 26/92/22 27/91/22
f 6/5/3 7/19/3 54/93/3 55/83/3
f 33/10/4 34/9/4 25/94/4 26/92/4
f 7/19/5 8/18/5 53/95/5 54/93/5
f 34/9/6 35/8/6 24/96/6 25/94/6
f 8/18/7 9/17/7 52/97/7 53/95/7
f 35/8/8 2/7/8 59/87/8 24/96/8
f 62/20/14 63/34/14 14/98/14 15/89/14
f 9/17/11 10/16/11 51/99/11 52/97/11
f 63/34/17 64/33/17 13/100/17 14/98/17
f 10/16/15 11/15/15 50/82/15 51/99/15
f 38/27/13 39/26/13 21/70/13 22/101/13
f 64/33/20 65/32/20 61/102/20 13/100/20
f 37/28/16 38/27/16 22/101/16 23/76/16
f 65/32/22 66/31/22 45/72/22 61/102/22
